<svg aria-hidden="true" style="position: absolute; width: 0; height: 0; overflow: hidden;" version="1.1" xmlns="http://www.w3.org/2000/svg" xmlns:xlink="http://www.w3.org/1999/xlink">
<defs>
<symbol id="icon-reply" viewBox="0 0 32 32">
<path d="M4.687 11.119l9.287 8.933v-5.412c2.813 0 9.973 0.062 9.973 7.426 0 3.855-2.734 7.072-6.369 7.816 5.842-0.792 10.359-5.747 10.359-11.806 0-11.256-12.026-11.352-13.963-11.352v-4.606l-9.287 9.001z"></path>
</symbol>
<symbol id="icon-arrow-up" viewBox="0 0 26 28">
<path d="M25.172 15.172c0 0.531-0.219 1.031-0.578 1.406l-1.172 1.172c-0.375 0.375-0.891 0.594-1.422 0.594s-1.047-0.219-1.406-0.594l-4.594-4.578v11c0 1.125-0.938 1.828-2 1.828h-2c-1.062 0-2-0.703-2-1.828v-11l-4.594 4.578c-0.359 0.375-0.875 0.594-1.406 0.594s-1.047-0.219-1.406-0.594l-1.172-1.172c-0.375-0.375-0.594-0.875-0.594-1.406s0.219-1.047 0.594-1.422l10.172-10.172c0.359-0.375 0.875-0.578 1.406-0.578s1.047 0.203 1.422 0.578l10.172 10.172c0.359 0.375 0.578 0.891 0.578 1.422z"></path>
</symbol>
<symbol id="icon-arrow-down" viewBox="0 0 26 28">
<path d="M25.172 13c0 0.531-0.219 1.047-0.578 1.406l-10.172 10.187c-0.375 0.359-0.891 0.578-1.422 0.578s-1.047-0.219-1.406-0.578l-10.172-10.187c-0.375-0.359-0.594-0.875-0.594-1.406s0.219-1.047 0.594-1.422l1.156-1.172c0.375-0.359 0.891-0.578 1.422-0.578s1.047 0.219 1.406 0.578l4.594 4.594v-11c0-1.094 0.906-2 2-2h2c1.094 0 2 0.906 2 2v11l4.594-4.594c0.359-0.359 0.875-0.578 1.406-0.578s1.047 0.219 1.422 0.578l1.172 1.172c0.359 0.375 0.578 0.891 0.578 1.422z"></path>
</symbol>
</defs>
</svg>
